<?xml version="1.0" standalone="no"?>
<!DOCTYPE svg PUBLIC "-//W3C//DTD SVG 20010904//EN"
 "http://www.w3.org/TR/2001/REC-SVG-20010904/DTD/svg10.dtd">
<svg version="1.0" xmlns="http://www.w3.org/2000/svg"
 width="2118.000000pt" height="2118.000000pt" viewBox="0 0 2118.000000 2118.000000"
 preserveAspectRatio="xMidYMid meet">
<metadata>
Created by potrace 1.11, written by Peter Selinger 2001-2013
</metadata>
<g transform="translate(0.000000,2118.000000) scale(0.100000,-0.100000)"
fill="#000000" stroke="none">
<path d="M10447 21174 c-1 -1 -94 -5 -207 -8 -113 -3 -234 -8 -270 -11 -36 -2
-105 -7 -155 -10 -49 -3 -108 -8 -130 -10 -22 -2 -69 -7 -105 -10 -36 -4 -83
-8 -105 -11 -22 -2 -62 -7 -90 -9 -85 -10 -176 -21 -235 -30 -14 -2 -61 -9
-105 -15 -102 -14 -127 -18 -195 -30 -30 -5 -72 -12 -94 -16 -21 -3 -48 -8
-60 -10 -11 -2 -36 -7 -55 -10 -53 -9 -72 -13 -151 -30 -14 -3 -38 -7 -55 -10
-16 -3 -66 -14 -110 -24 -44 -11 -91 -21 -105 -24 -49 -10 -74 -16 -251 -61
-99 -25 -219 -57 -267 -71 -48 -14 -100 -30 -117 -34 -144 -37 -720 -234 -850
-290 -11 -5 -83 -34 -160 -66 -296 -120 -742 -331 -1005 -475 -41 -22 -97 -53
-125 -67 -27 -14 -57 -31 -65 -37 -8 -7 -46 -30 -85 -50 -38 -21 -77 -44 -86
-51 -8 -8 -18 -14 -22 -14 -21 0 -481 -298 -702 -454 -101 -72 -416 -305 -425
-315 -3 -4 -61 -51 -130 -106 -69 -55 -132 -107 -140 -115 -8 -8 -37 -33 -64
-54 -26 -22 -58 -49 -70 -60 -11 -12 -37 -34 -56 -50 -136 -111 -676 -642
-835 -820 -44 -49 -89 -99 -100 -112 -11 -12 -34 -37 -50 -55 -113 -126 -374
-449 -511 -634 -218 -293 -339 -473 -594 -885 -5 -8 -41 -71 -81 -140 -69
-120 -84 -146 -171 -305 -163 -295 -414 -842 -530 -1150 -16 -44 -34 -89 -39
-100 -15 -33 -89 -239 -89 -248 0 -5 -6 -23 -14 -40 -47 -104 -237 -754 -291
-997 -73 -323 -131 -613 -150 -750 -3 -25 -8 -52 -10 -60 -2 -8 -6 -37 -10
-65 -3 -27 -8 -61 -10 -75 -8 -54 -27 -197 -30 -231 -2 -20 -5 -50 -8 -65 -3
-16 -9 -65 -12 -108 -4 -43 -8 -86 -10 -95 -1 -9 -6 -59 -10 -111 -3 -52 -8
-111 -10 -130 -5 -52 -16 -269 -21 -400 -5 -138 -5 -639 1 -765 8 -185 22
-423 30 -495 2 -19 7 -69 10 -110 6 -74 11 -122 20 -190 2 -19 7 -60 10 -90 4
-30 15 -118 26 -195 28 -194 27 -187 38 -252 6 -32 13 -76 16 -98 5 -34 82
-420 89 -450 2 -5 6 -28 11 -50 4 -22 29 -128 56 -235 290 -1162 754 -2223
1424 -3250 49 -74 91 -137 94 -140 3 -3 35 -48 70 -100 84 -124 350 -480 359
-480 8 0 506 390 535 418 16 17 16 20 -15 62 -18 25 -35 47 -38 50 -3 3 -18
23 -35 45 -34 46 -37 50 -68 90 -117 150 -557 814 -557 841 0 3 -12 23 -27 47
-30 47 -32 49 -132 232 -148 269 -357 701 -456 945 -14 36 -32 79 -39 95 -82
187 -228 608 -317 910 -27 94 -53 184 -58 200 -20 63 -121 482 -136 563 -3 15
-7 38 -10 52 -6 32 -35 179 -40 205 -6 32 -24 137 -30 175 -3 19 -8 46 -10 60
-3 14 -7 43 -10 65 -2 22 -7 58 -11 80 -14 93 -22 157 -29 215 -2 25 -7 65
-10 90 -3 25 -7 68 -10 95 -2 28 -6 73 -9 100 -2 28 -8 93 -11 145 -4 52 -9
112 -11 133 -21 225 -21 1045 1 1247 2 19 7 82 10 140 4 58 9 113 11 123 1 9
6 52 9 95 3 42 7 88 10 102 2 14 6 52 10 85 12 103 14 119 19 153 3 18 10 67
16 110 6 42 12 89 15 105 18 103 25 146 30 177 36 220 133 642 220 965 169
623 469 1365 808 1995 67 126 233 414 282 490 12 19 38 60 57 90 97 153 139
217 231 350 216 312 547 733 761 969 296 325 630 652 926 906 147 126 144 123
240 200 41 33 77 62 80 65 33 35 411 310 620 451 834 563 1781 1006 2745 1284
139 40 471 128 530 139 11 3 94 20 185 39 91 19 179 37 195 40 17 3 71 13 120
21 104 19 317 52 390 61 28 4 60 8 73 10 13 2 53 7 90 10 37 4 74 8 82 10 8 2
51 7 95 10 44 4 91 8 105 10 47 7 279 22 475 31 274 13 889 6 1050 -11 22 -2
81 -7 130 -11 114 -8 133 -9 225 -18 84 -8 302 -34 340 -40 14 -3 45 -7 70
-10 50 -7 47 -6 255 -40 119 -20 403 -75 520 -101 11 -3 29 -7 40 -9 11 -2 40
-9 65 -16 25 -7 52 -13 60 -15 8 -2 85 -21 170 -43 768 -199 1580 -525 2273
-913 43 -24 95 -53 115 -64 20 -11 55 -31 76 -44 l39 -24 18 24 c10 13 19 27
19 30 0 6 39 72 140 239 58 96 158 266 169 287 17 32 22 28 -154 128 -457 259
-965 497 -1440 677 -161 61 -367 135 -395 143 -8 2 -51 16 -95 30 -428 140
-958 274 -1360 345 -33 5 -70 12 -81 14 -50 10 -119 21 -189 31 -27 3 -57 8
-65 10 -8 2 -37 7 -65 10 -27 3 -59 8 -70 10 -11 2 -47 6 -80 10 -33 3 -69 8
-80 10 -11 2 -47 6 -80 10 -33 3 -73 8 -90 10 -16 2 -68 7 -115 10 -47 4 -95
8 -108 10 -12 2 -73 7 -135 10 -61 4 -128 9 -147 10 -83 8 -747 24 -753 19z"/>
<path d="M16606 19253 c-26 -32 -74 -87 -106 -123 -31 -36 -110 -126 -175
-200 -65 -74 -132 -151 -149 -170 -17 -19 -74 -84 -126 -145 -52 -60 -98 -112
-101 -115 -3 -3 -118 -133 -255 -290 -136 -157 -260 -298 -275 -315 -15 -16
-141 -160 -280 -320 -139 -159 -258 -295 -264 -301 -5 -6 -35 -40 -65 -74 -30
-35 -59 -68 -65 -74 -6 -6 -104 -119 -219 -251 -115 -132 -223 -256 -240 -275
-17 -19 -96 -109 -175 -200 -79 -91 -172 -196 -205 -234 -34 -38 -69 -78 -79
-90 -10 -12 -42 -47 -70 -80 -29 -32 -62 -70 -75 -85 -12 -14 -33 -37 -45 -51
-12 -14 -49 -56 -82 -95 -33 -38 -65 -74 -71 -80 -6 -5 -37 -41 -70 -80 -32
-38 -62 -72 -65 -75 -3 -3 -57 -63 -119 -135 -106 -123 -213 -244 -235 -269
-6 -6 -55 -63 -110 -126 -55 -63 -114 -131 -131 -150 -17 -19 -69 -78 -114
-130 -45 -52 -96 -111 -114 -130 -17 -19 -124 -141 -236 -270 -113 -129 -207
-237 -210 -240 -3 -3 -32 -36 -65 -75 -33 -38 -67 -76 -75 -85 -8 -9 -42 -47
-75 -85 -55 -63 -170 -195 -236 -270 -15 -16 -111 -127 -215 -245 -103 -118
-190 -217 -193 -220 -3 -3 -28 -32 -56 -65 -27 -33 -52 -62 -56 -65 -3 -3 -57
-63 -119 -135 -62 -71 -139 -159 -170 -195 -31 -36 -72 -83 -91 -105 -19 -22
-37 -42 -40 -45 -3 -3 -88 -99 -189 -215 -100 -115 -199 -228 -219 -250 -20
-22 -79 -89 -131 -150 -52 -60 -99 -115 -105 -121 -9 -10 -91 -103 -138 -158
-10 -12 -33 -37 -50 -56 -18 -20 -59 -67 -92 -105 -33 -39 -62 -72 -65 -75 -3
-3 -34 -39 -70 -80 -36 -41 -69 -80 -75 -86 -49 -54 -272 -309 -415 -474 -36
-41 -67 -77 -71 -80 -3 -3 -83 -95 -179 -205 -96 -110 -177 -202 -180 -205 -3
-3 -48 -54 -100 -115 -52 -60 -97 -112 -100 -115 -8 -7 -346 -392 -389 -444
-19 -23 -53 -61 -75 -86 -23 -25 -66 -75 -98 -110 -153 -176 -307 -352 -362
-414 -61 -69 -79 -90 -118 -136 -21 -25 -115 -132 -228 -260 -32 -36 -110
-126 -175 -200 -65 -74 -132 -151 -149 -170 -17 -19 -74 -84 -126 -145 -52
-60 -102 -116 -110 -125 -8 -9 -28 -32 -45 -51 -64 -72 -301 -345 -325 -373
-14 -16 -32 -36 -40 -45 -9 -9 -43 -47 -75 -86 -33 -38 -65 -74 -71 -80 -5 -5
-39 -44 -75 -85 -35 -41 -78 -91 -95 -110 -90 -101 -133 -150 -167 -190 -22
-25 -94 -108 -162 -185 -144 -164 -426 -487 -464 -530 -14 -17 -56 -64 -92
-105 -36 -41 -79 -90 -95 -109 -16 -18 -38 -43 -49 -55 -11 -12 -42 -49 -70
-80 -27 -32 -61 -71 -75 -86 -14 -15 -47 -54 -75 -86 -50 -58 -82 -95 -206
-235 -36 -40 -81 -92 -100 -114 -19 -22 -36 -42 -39 -45 -3 -3 -34 -39 -69
-80 -36 -41 -70 -79 -75 -85 -6 -5 -36 -39 -66 -75 -30 -35 -62 -71 -70 -80
-8 -9 -37 -42 -65 -74 -27 -33 -55 -64 -60 -70 -6 -6 -61 -69 -124 -141 -62
-71 -139 -159 -171 -195 -53 -61 -157 -178 -289 -329 -31 -36 -76 -88 -101
-116 -25 -28 -61 -70 -80 -92 -19 -22 -60 -69 -91 -104 -81 -93 -210 -241
-227 -261 -12 -15 -10 -20 24 -50 20 -18 42 -38 48 -43 6 -6 81 -71 166 -145
85 -74 171 -149 190 -167 75 -67 91 -77 104 -62 7 8 46 52 87 99 41 46 86 98
101 115 14 16 142 163 284 325 141 162 267 306 280 320 12 14 60 68 105 120
45 52 108 124 140 160 198 227 236 269 268 306 20 22 61 69 91 104 30 35 138
159 240 275 102 116 208 237 235 270 28 32 55 63 61 69 5 6 43 49 84 96 41 47
89 101 106 120 17 19 80 91 140 160 60 69 113 130 119 136 5 6 35 39 65 74 30
35 60 68 65 74 6 6 25 29 44 51 19 22 62 72 96 110 34 39 115 131 180 205 161
185 227 261 245 280 8 9 42 47 75 85 32 39 66 77 75 86 8 9 26 29 40 45 47 55
225 259 256 294 17 19 69 78 114 130 45 52 95 109 111 127 15 17 78 89 139
160 62 70 126 144 144 163 18 19 94 107 171 195 76 88 141 162 144 165 3 3 35
39 71 80 36 41 69 80 75 86 5 6 35 40 65 74 30 35 59 68 65 74 6 6 53 61 105
121 52 61 99 115 105 121 14 16 109 123 205 234 45 52 97 111 114 130 17 19
76 87 131 150 55 63 102 117 105 120 3 3 118 133 254 290 227 259 311 356 378
431 13 15 64 73 113 130 50 57 99 113 110 125 11 12 31 34 44 50 32 38 137
158 182 209 20 22 89 101 154 175 65 74 139 160 166 190 26 30 57 65 67 78 11
12 47 53 80 90 33 37 254 290 492 562 238 272 446 511 464 530 17 19 46 53 65
75 18 22 61 72 96 110 34 39 163 185 285 325 122 140 248 284 280 320 31 36
72 83 91 105 18 22 45 51 59 66 14 14 42 46 63 72 21 25 44 52 51 59 7 7 63
72 125 143 62 72 126 144 142 162 15 17 74 85 131 150 56 65 105 120 108 123
3 3 34 39 70 80 36 41 67 77 70 80 3 3 48 55 100 115 52 61 100 115 106 120 6
6 55 62 110 125 54 63 101 117 104 120 3 3 34 39 70 80 36 41 67 77 70 80 3 3
84 95 180 205 96 110 179 205 185 211 10 11 53 60 204 234 41 47 79 90 85 95
6 6 28 31 49 57 21 26 44 53 50 60 12 11 116 130 187 212 14 16 30 34 35 40 6
6 41 47 80 91 38 44 90 103 115 131 74 83 101 114 200 229 52 61 97 112 100
115 3 3 52 59 110 125 57 66 107 122 110 125 3 3 50 57 105 120 55 63 102 117
105 120 3 3 34 39 70 80 113 131 125 144 145 165 11 12 45 51 75 86 30 35 57
66 60 69 3 3 34 39 69 80 36 41 70 80 75 85 6 6 36 39 66 75 30 36 58 67 61
70 3 3 37 41 75 85 38 44 85 98 104 119 19 21 40 44 45 50 17 19 139 159 165
190 14 16 32 37 40 46 13 13 70 80 230 264 14 16 37 41 51 57 14 15 48 54 75
85 27 32 56 65 64 74 8 8 42 47 75 85 33 38 68 79 78 90 11 11 38 42 60 69 23
26 59 67 80 90 21 22 47 53 57 67 l20 26 -98 84 c-53 46 -102 88 -108 94 -16
15 -126 112 -224 196 -47 41 -86 77 -88 82 -7 15 -19 6 -66 -50z"/>
<path d="M17766 18297 c-38 -43 -118 -129 -247 -267 -59 -63 -128 -137 -153
-164 l-45 -49 222 -221 c122 -122 260 -264 307 -315 47 -52 90 -99 95 -105 9
-9 168 -193 239 -276 93 -108 302 -379 422 -545 410 -567 800 -1258 1060
-1874 25 -58 49 -115 54 -126 16 -32 119 -300 162 -420 98 -273 182 -544 253
-810 8 -33 17 -67 19 -75 12 -45 68 -276 75 -312 5 -24 23 -113 40 -198 18
-85 34 -171 37 -190 3 -19 11 -66 19 -105 7 -38 16 -92 20 -119 5 -43 25 -183
41 -286 2 -19 7 -60 10 -90 3 -30 7 -66 9 -80 2 -14 7 -61 10 -105 4 -44 8
-91 10 -105 2 -14 7 -70 11 -125 4 -55 8 -118 9 -140 21 -298 21 -920 0 -1200
-1 -22 -6 -85 -9 -140 -4 -55 -9 -120 -12 -145 -2 -25 -6 -65 -9 -90 -21 -206
-56 -483 -70 -545 -2 -11 -7 -43 -10 -71 -3 -28 -8 -61 -10 -75 -3 -13 -8 -37
-10 -54 -106 -598 -261 -1165 -480 -1755 -32 -85 -62 -159 -66 -164 -5 -6 -9
-16 -9 -23 0 -7 -8 -32 -19 -56 -10 -23 -29 -67 -41 -97 -82 -203 -315 -687
-442 -920 -120 -219 -414 -703 -465 -765 -5 -5 -44 -62 -87 -125 -133 -195
-523 -706 -557 -730 -4 -3 -20 -21 -36 -41 -26 -33 -99 -117 -203 -232 -154
-172 -429 -449 -610 -617 -69 -63 -127 -117 -130 -120 -3 -3 -36 -32 -75 -65
-38 -33 -72 -62 -75 -65 -3 -3 -32 -28 -65 -55 -33 -28 -62 -53 -65 -56 -24
-28 -518 -407 -559 -428 -11 -6 -26 -17 -33 -23 -52 -48 -467 -318 -723 -470
-241 -144 -932 -498 -970 -498 -2 0 -32 -13 -67 -29 -61 -29 -89 -41 -278
-117 -363 -148 -846 -305 -1235 -403 -230 -57 -468 -110 -565 -126 -28 -4
-181 -32 -220 -40 -13 -2 -42 -7 -65 -10 -22 -3 -65 -10 -95 -15 -30 -5 -77
-12 -105 -15 -27 -4 -61 -8 -75 -10 -14 -2 -47 -7 -75 -10 -27 -3 -63 -8 -80
-10 -16 -2 -61 -7 -100 -10 -38 -4 -77 -9 -86 -10 -9 -2 -56 -6 -105 -10 -49
-3 -107 -8 -130 -10 -236 -22 -821 -33 -1094 -21 -260 12 -342 16 -372 21 -18
2 -76 7 -128 10 -52 3 -104 8 -115 10 -11 2 -47 7 -80 10 -33 3 -78 7 -100 10
-22 3 -60 7 -85 10 -110 13 -138 17 -185 25 -27 5 -68 12 -90 14 -51 7 -139
21 -240 40 -44 8 -96 17 -115 21 -19 3 -42 8 -50 10 -8 2 -31 7 -50 10 -60 10
-346 75 -466 105 -449 114 -1068 323 -1409 475 -16 7 -68 30 -115 50 -188 81
-612 288 -775 380 -573 321 -962 582 -1483 996 -29 23 -54 40 -55 38 -5 -7
-102 -124 -112 -135 -5 -6 -22 -26 -37 -45 -15 -19 -80 -97 -143 -174 -64 -77
-125 -152 -135 -166 l-19 -25 147 -116 c367 -290 791 -582 1182 -815 39 -24
324 -184 410 -231 124 -67 601 -302 615 -302 2 0 43 -18 92 -41 383 -176 940
-376 1418 -508 120 -34 228 -63 240 -65 11 -2 49 -12 85 -21 36 -9 73 -19 83
-21 10 -2 26 -5 35 -8 9 -3 28 -8 42 -10 528 -108 580 -118 680 -131 8 -1 29
-4 45 -8 17 -3 53 -9 80 -12 28 -3 57 -8 65 -10 8 -2 40 -6 71 -10 31 -3 67
-8 79 -10 12 -2 49 -7 83 -10 34 -3 73 -8 87 -10 14 -2 54 -6 90 -10 36 -3 81
-8 100 -10 19 -2 76 -6 125 -10 50 -3 110 -8 135 -10 266 -26 1123 -26 1465 0
115 9 209 16 243 20 20 2 69 6 107 10 39 3 81 8 95 10 14 2 54 7 90 10 36 4
72 9 80 10 8 2 38 6 65 9 28 4 61 9 75 11 14 2 45 6 70 10 60 9 95 14 128 20
15 2 56 9 92 14 36 6 76 13 90 16 14 3 39 8 55 10 80 15 237 46 295 59 36 8
76 17 90 20 191 36 681 170 965 264 77 25 145 47 150 48 12 3 81 28 260 94
1066 393 2088 978 2995 1714 78 64 343 290 381 326 8 8 62 58 119 110 216 198
573 563 761 780 41 47 78 90 84 96 137 150 449 550 631 809 409 580 774 1228
1051 1870 71 164 203 491 208 515 2 8 10 31 18 50 46 110 238 702 262 810 2 8
19 74 38 145 35 130 73 283 81 330 3 14 7 33 10 43 5 15 58 271 69 332 3 14
10 52 16 85 6 33 13 69 15 80 2 11 7 43 11 70 5 28 9 52 10 55 1 6 18 120 20
135 1 6 4 28 8 50 4 22 9 60 12 85 3 25 10 79 15 121 13 91 18 143 25 229 3
36 8 76 10 90 2 14 6 68 10 120 3 52 8 111 10 130 27 255 27 1306 0 1490 -2
14 -7 66 -10 115 -4 50 -8 104 -10 120 -1 17 -6 64 -9 105 -4 41 -9 86 -11
100 -2 14 -6 50 -10 80 -6 55 -13 112 -21 161 -2 14 -6 43 -9 64 -7 54 -15
115 -21 150 -3 17 -7 44 -9 60 -9 64 -77 425 -101 530 -13 60 -26 119 -28 130
-8 43 -79 323 -111 438 -19 67 -39 140 -45 162 -109 389 -341 1018 -509 1378
-23 49 -41 91 -41 94 0 11 -281 564 -342 673 -109 194 -119 212 -176 305 -30
50 -62 104 -72 120 -21 36 -90 145 -178 280 -291 443 -657 913 -1040 1335
-115 126 -579 590 -589 589 -4 0 -21 -15 -37 -32z"/>
<path d="M3950 10961 c0 -4348 2 -5180 13 -5169 8 7 65 60 127 118 215 199
337 325 458 477 67 83 136 165 153 181 l31 29 0 4396 0 4397 137 -5 c140 -5
272 -12 351 -20 25 -3 70 -7 100 -10 59 -5 79 -8 235 -31 1142 -168 2130 -733
2890 -1654 38 -47 72 -87 75 -90 16 -14 216 -288 277 -380 233 -350 409 -700
563 -1118 29 -79 56 -142 61 -140 19 7 210 201 292 298 49 58 115 132 146 165
32 33 80 88 109 122 l51 63 -25 57 c-30 71 -35 81 -123 266 -61 128 -110 221
-198 378 -59 103 -294 465 -334 513 -5 6 -42 54 -82 106 -246 325 -548 650
-837 900 -41 36 -77 67 -80 70 -6 6 -131 106 -190 151 -149 115 -408 286 -580
383 -89 50 -383 197 -450 225 -30 13 -73 32 -96 42 -257 115 -717 257 -1069
328 -135 27 -149 30 -230 41 -38 6 -77 12 -85 15 -8 2 -42 6 -75 10 -33 3 -69
8 -80 10 -20 4 -107 14 -175 20 -53 5 -189 17 -240 21 -25 3 -287 7 -582 10
l-538 7 0 -5182z"/>
<path d="M15254 15983 c-75 -87 -163 -187 -194 -223 -80 -91 -584 -668 -834
-955 -115 -132 -234 -269 -266 -305 -31 -36 -94 -108 -140 -160 -46 -52 -93
-106 -104 -119 -58 -68 -523 -601 -550 -631 -17 -19 -108 -123 -201 -230 -93
-107 -172 -197 -175 -200 -3 -3 -48 -54 -100 -115 -52 -60 -97 -112 -100 -115
-3 -3 -48 -54 -100 -115 -89 -103 -141 -163 -165 -189 -36 -40 -294 -338 -361
-416 -96 -113 -247 -304 -328 -415 -32 -44 -71 -96 -86 -115 -88 -114 -342
-521 -435 -695 -134 -252 -295 -607 -334 -738 -5 -18 -19 -59 -31 -92 -60
-165 -155 -528 -175 -670 -1 -11 -5 -36 -9 -55 -6 -36 -11 -70 -21 -155 -4
-27 -8 -61 -11 -75 -25 -157 -25 -711 1 -935 13 -110 44 -320 50 -337 2 -7 6
-26 9 -43 10 -64 27 -139 55 -247 193 -739 568 -1378 1142 -1947 173 -172 397
-365 535 -461 90 -63 270 -184 296 -199 18 -10 74 -42 123 -71 309 -180 753
-352 1110 -430 144 -31 130 -28 210 -44 11 -2 42 -7 68 -10 27 -4 56 -9 65
-10 30 -6 106 -15 167 -21 33 -4 76 -8 95 -10 188 -22 667 -22 876 0 106 11
215 24 254 30 14 3 43 7 65 11 91 14 249 47 380 80 129 32 430 128 500 159 17
7 71 30 120 51 371 156 735 383 1095 683 102 85 414 388 495 481 310 354 546
715 714 1090 35 78 42 94 85 200 56 140 154 465 180 600 2 14 11 57 19 95 9
39 18 95 22 125 3 30 8 62 10 70 4 16 11 63 21 155 3 33 8 72 9 87 9 76 18
289 18 418 0 140 -12 429 -18 440 -1 3 -6 41 -10 85 -3 44 -8 89 -10 100 -3
11 -7 38 -10 60 -15 113 -56 314 -87 435 -11 41 -21 80 -22 85 -25 99 -127
399 -156 460 -5 11 -30 67 -55 125 -59 136 -160 327 -242 460 -35 58 -69 114
-76 124 -48 78 -230 326 -312 425 -89 108 -276 308 -387 416 -169 162 -194
185 -348 309 -402 325 -826 560 -1286 715 -165 55 -251 79 -439 119 -78 17
-119 25 -269 48 -15 3 -51 7 -80 10 -28 3 -67 7 -86 9 -214 22 -692 23 -805 1
-11 -2 -58 -7 -105 -11 -47 -4 -94 -9 -105 -11 -11 -2 -51 -9 -90 -14 -96 -14
-273 -48 -375 -72 -47 -11 -93 -21 -102 -23 -37 -8 -174 -46 -195 -55 -37 -15
-34 2 10 49 23 26 65 73 92 105 28 32 55 64 60 70 6 6 59 67 119 136 149 171
210 241 297 340 42 47 86 98 100 114 13 16 29 34 34 40 6 6 102 117 215 246
112 129 222 255 244 280 23 25 66 75 97 110 185 214 285 329 312 359 17 19 64
73 105 120 157 180 183 211 328 376 82 94 192 220 244 280 52 61 99 115 105
121 41 46 89 99 139 159 33 39 64 75 70 80 6 6 37 40 69 78 l59 67 -481 0
-480 0 -137 -157z m-155 -3487 c74 -4 148 -9 165 -11 17 -3 67 -9 111 -15 134
-17 156 -21 272 -46 472 -100 892 -291 1293 -587 52 -38 111 -83 130 -100 19
-16 62 -53 95 -81 33 -28 130 -120 216 -206 420 -418 714 -872 897 -1386 45
-125 122 -398 136 -479 3 -16 10 -59 16 -95 25 -147 28 -166 34 -225 3 -27 9
-79 13 -115 16 -140 7 -758 -12 -830 -2 -8 -7 -40 -10 -70 -3 -30 -8 -62 -10
-70 -2 -8 -7 -35 -10 -60 -28 -202 -118 -515 -214 -748 -230 -555 -608 -1053
-1126 -1481 -11 -9 -38 -30 -60 -46 -22 -16 -42 -33 -45 -36 -10 -12 -229
-158 -304 -203 -127 -77 -317 -171 -464 -230 -125 -50 -341 -121 -402 -132
-14 -3 -39 -9 -56 -15 -34 -11 -58 -16 -118 -25 -22 -3 -43 -7 -46 -9 -3 -2
-24 -6 -46 -9 -22 -4 -50 -8 -63 -11 -13 -2 -49 -7 -80 -11 -31 -3 -64 -8 -74
-10 -139 -26 -743 -25 -898 1 -13 2 -58 9 -99 14 -41 6 -85 13 -96 15 -12 2
-38 7 -59 10 -73 12 -322 76 -425 110 -121 40 -254 92 -357 141 -40 19 -76 35
-80 35 -5 0 -19 9 -33 20 -14 11 -30 20 -37 20 -13 0 -172 93 -283 165 -325
212 -664 521 -921 841 -89 110 -228 307 -275 389 -6 11 -28 49 -49 85 -180
311 -322 700 -389 1060 -9 47 -18 94 -20 105 -2 11 -7 45 -10 76 -4 31 -8 66
-11 77 -27 141 -27 757 0 932 2 14 7 45 10 70 9 67 24 159 35 210 5 25 12 56
14 70 32 193 162 561 285 809 356 716 1014 1381 1716 1734 221 111 525 224
684 254 14 2 28 6 31 8 4 2 22 7 41 10 19 3 54 11 79 16 64 15 70 16 120 23
25 3 54 8 65 10 11 2 49 7 85 11 36 4 79 9 95 11 17 2 98 7 180 10 83 4 151 7
152 8 1 1 19 1 40 0 21 -1 98 -5 172 -8z"/>
<path d="M10104 9963 c-22 -26 -46 -55 -54 -63 -8 -9 -42 -47 -75 -85 -51 -59
-87 -100 -140 -159 -6 -6 -42 -47 -80 -91 -39 -44 -86 -98 -105 -119 -19 -22
-51 -57 -72 -78 -26 -26 -38 -49 -43 -80 -16 -107 -71 -350 -105 -468 -11 -41
-23 -82 -25 -90 -2 -8 -20 -66 -40 -129 -142 -437 -337 -844 -593 -1236 -59
-90 -286 -402 -301 -415 -4 -3 -26 -30 -51 -60 -192 -235 -480 -519 -724 -714
-116 -93 -311 -236 -322 -236 -3 0 -20 -11 -37 -24 -123 -92 -432 -257 -689
-367 -129 -55 -479 -177 -555 -193 -28 -7 -110 -86 -226 -220 -10 -12 -40 -46
-67 -76 -26 -30 -76 -89 -110 -130 -134 -161 -171 -205 -250 -289 -59 -64
-190 -212 -190 -215 0 -2 17 0 38 4 20 5 60 11 87 14 28 4 76 11 108 16 31 6
83 14 115 20 31 5 80 12 107 16 53 7 61 8 140 24 28 5 66 12 85 15 19 3 103
22 185 41 775 183 1442 496 2042 961 860 665 1568 1652 1923 2679 68 199 164
524 154 524 -2 0 1 11 6 25 5 14 12 36 14 48 3 12 18 87 35 167 16 80 33 165
37 190 3 25 8 52 9 60 2 13 8 49 20 130 8 52 34 288 40 360 3 41 8 101 10 132
6 65 5 65 -84 67 -49 1 -60 6 -109 46 -30 25 -58 45 -62 45 -4 0 -25 -21 -46
-47z"/>
</g>
</svg>
